<svg width="13" height="23" viewBox="0 0 13 23" fill="none" xmlns="http://www.w3.org/2000/svg">
<path d="M11.9317 20.6752L2.66555 11.1693L11.9317 1.66352C12.0976 1.49369 12.1905 1.26569 12.1905 1.02828C12.1905 0.79087 12.0976 0.562877 11.9317 0.39304C11.8511 0.310805 11.755 0.245474 11.6488 0.200874C11.5427 0.156273 11.4287 0.133301 11.3136 0.133301C11.1985 0.133301 11.0845 0.156273 10.9784 0.200874C10.8722 0.245474 10.776 0.310805 10.6955 0.39304L0.835901 10.5056C0.662799 10.6832 0.565919 10.9213 0.565919 11.1693C0.565919 11.4173 0.662799 11.6555 0.835901 11.8331L10.6936 21.9456C10.7742 22.0285 10.8706 22.0943 10.9771 22.1392C11.0836 22.1842 11.198 22.2073 11.3136 22.2073C11.4292 22.2073 11.5436 22.1842 11.6501 22.1392C11.7566 22.0943 11.853 22.0285 11.9336 21.9456C12.0995 21.7758 12.1924 21.5478 12.1924 21.3104C12.1924 21.073 12.0995 20.845 11.9336 20.6752L11.9317 20.6752Z" fill="#FF6896"/>
</svg>
