<svg width="18" height="18" viewBox="0 0 18 18" fill="none" xmlns="http://www.w3.org/2000/svg">
<path d="M9.81159 5.13998C9.81159 4.5877 9.36388 4.13998 8.81159 4.13998C8.25931 4.13998 7.81159 4.5877 7.81159 5.13998H9.81159ZM11.0764 8.04994C11.4669 7.65942 11.4669 7.02625 11.0764 6.63573C10.6858 6.2452 10.0527 6.2452 9.66215 6.63573L11.0764 8.04994ZM1.57834 1.60555C1.14708 1.95056 1.07716 2.57985 1.42217 3.01111C1.76717 3.44237 2.39647 3.51229 2.82773 3.16728L1.57834 1.60555ZM4.66344 1.69872C5.0947 1.35371 5.16462 0.724414 4.81961 0.293152C4.4746 -0.13811 3.84531 -0.208032 3.41405 0.136978L4.66344 1.69872ZM14.7955 3.16728C15.2267 3.51229 15.856 3.44237 16.201 3.01111C16.546 2.57985 16.4761 1.95056 16.0448 1.60555L14.7955 3.16728ZM14.2091 0.136978C13.7779 -0.208032 13.1486 -0.13811 12.8036 0.293152C12.4586 0.724414 12.5285 1.35371 12.9597 1.69872L14.2091 0.136978ZM8.8746 8.83749L9.5817 9.5446L8.8746 8.83749ZM7.81159 5.13998V8.8114H9.81159V5.13998H7.81159ZM9.66215 6.63573L8.16749 8.13039L9.5817 9.5446L11.0764 8.04994L9.66215 6.63573ZM15.1544 8.8114C15.1544 12.3145 12.3146 15.1542 8.81159 15.1542V17.1542C13.4192 17.1542 17.1544 13.419 17.1544 8.8114H15.1544ZM8.81159 15.1542C5.30854 15.1542 2.46875 12.3145 2.46875 8.8114H0.46875C0.46875 13.419 4.20397 17.1542 8.81159 17.1542V15.1542ZM2.46875 8.8114C2.46875 5.30835 5.30854 2.46856 8.81159 2.46856V0.46856C4.20397 0.46856 0.46875 4.20378 0.46875 8.8114H2.46875ZM8.81159 2.46856C12.3146 2.46856 15.1544 5.30835 15.1544 8.8114H17.1544C17.1544 4.20378 13.4192 0.46856 8.81159 0.46856V2.46856ZM2.82773 3.16728L4.66344 1.69872L3.41405 0.136978L1.57834 1.60555L2.82773 3.16728ZM16.0448 1.60555L14.2091 0.136978L12.9597 1.69872L14.7955 3.16728L16.0448 1.60555ZM8.16749 8.13039C8.77416 7.52372 9.81148 7.9533 9.81159 8.81127L7.81159 8.81153C7.81172 9.73526 8.92854 10.1978 9.5817 9.5446L8.16749 8.13039Z" fill="#FFE141"/>
</svg>
